# xmcd
#
# Track frame offsets: 
#        150
#        12597
#        23422
#        37594
#        50638
#        63314
#        70812
#
# Disc length: 1175 seconds
#
# Revision: 0
# Processed by: cddbd v1.5.2PL0 Copyright (c) Steve Scherf et al.
# Submitted via: ExactAudioCopy v1.0b1
#
DISCID=4f049507
DTITLE=Gringojaap - Who The Hell Is Ruud Hermans?
DYEAR=1900
DGENRE=Country
TTITLE0=Crazy
TTITLE1=He'll Have To Go
TTITLE2=Help Me Make It Through The Night
TTITLE3=Ontbijt In Nashville
TTITLE4=Some Broken Hearts Never Mend
TTITLE5=Walk The Line
TTITLE6=Why Me Lord
EXTD=
EXTT0=
EXTT1=
EXTT2=
EXTT3=
EXTT4=
EXTT5=
EXTT6=
PLAYORDER=
